STARTFONT 2.1
COMMENT Created by fdbbdf
FONT helvetica12b
SIZE 12 78 78
FONTBOUNDINGBOX 14 14 0 -4
STARTPROPERTIES 4
Ownership "  Copyright (c) 1984 Adobe Systems, Inc.  /adobe/fonttools/bitmaps/stdfontvec.ps HM14.bits  TOTAL BITMAP BYTES 1442  GUIDELINES -3 0 8 11 DONE  WIDTHERR -52 -87  "
FONT_ASCENT 10
FONT_DESCENT 4
DEFAULT_CHAR 32
ENDPROPERTIES
CHARS 95
STARTCHAR sp
ENCODING -1 32
SWIDTH 0 0
DWIDTH 4 0
BBX 0 0 0 0
BITMAP
ENDCHAR
STARTCHAR !
ENCODING -1 33
SWIDTH 0 0
DWIDTH 4 0
BBX 2 11 1 -1
BITMAP
c000
c000
c000
c000
c000
c000
c000
c000
0000
c000
c000
ENDCHAR
STARTCHAR "
ENCODING -1 34
SWIDTH 0 0
DWIDTH 7 0
BBX 5 3 1 7
BITMAP
d800
d800
9000
ENDCHAR
STARTCHAR #
ENCODING -1 35
SWIDTH 0 0
DWIDTH 9 0
BBX 9 10 0 -1
BITMAP
1b00
1b00
1b00
7f80
3600
3600
ff00
6c00
6c00
6c00
ENDCHAR
STARTCHAR $
ENCODING -1 36
SWIDTH 0 0
DWIDTH 8 0
BBX 7 13 0 -3
BITMAP
1000
7c00
fe00
d600
d000
fc00
7e00
1600
d600
fe00
7c00
1000
1000
ENDCHAR
STARTCHAR %
ENCODING -1 37
SWIDTH 0 0
DWIDTH 13 0
BBX 14 10 0 -1
BITMAP
78e0
ccc0
cd80
7b80
0700
0600
0ef0
0d98
1998
38f0
ENDCHAR
STARTCHAR &
ENCODING -1 38
SWIDTH 0 0
DWIDTH 11 0
BBX 9 10 1 -1
BITMAP
3800
6c00
6c00
3800
7300
fb00
ce00
c600
ef00
7d80
ENDCHAR
STARTCHAR '
ENCODING -1 39
SWIDTH 0 0
DWIDTH 5 0
BBX 3 3 1 7
BITMAP
6000
6000
c000
ENDCHAR
STARTCHAR (
ENCODING -1 40
SWIDTH 0 0
DWIDTH 4 0
BBX 4 14 0 -4
BITMAP
3000
6000
6000
c000
c000
c000
c000
c000
c000
c000
c000
6000
6000
3000
ENDCHAR
STARTCHAR )
ENCODING -1 41
SWIDTH 0 0
DWIDTH 5 0
BBX 4 14 1 -4
BITMAP
c000
6000
6000
3000
3000
3000
3000
3000
3000
3000
3000
6000
6000
c000
ENDCHAR
STARTCHAR *
ENCODING -1 42
SWIDTH 0 0
DWIDTH 6 0
BBX 5 5 0 5
BITMAP
2000
a800
7000
5000
8800
ENDCHAR
STARTCHAR +
ENCODING -1 43
SWIDTH 0 0
DWIDTH 10 0
BBX 8 8 1 0
BITMAP
1800
1800
1800
ff00
ff00
1800
1800
1800
ENDCHAR
STARTCHAR ,
ENCODING -1 44
SWIDTH 0 0
DWIDTH 4 0
BBX 3 3 0 -2
BITMAP
6000
6000
c000
ENDCHAR
STARTCHAR -
ENCODING -1 45
SWIDTH 0 0
DWIDTH 7 0
BBX 5 2 1 3
BITMAP
f800
f800
ENDCHAR
STARTCHAR .
ENCODING -1 46
SWIDTH 0 0
DWIDTH 4 0
BBX 2 2 1 -1
BITMAP
c000
c000
ENDCHAR
STARTCHAR /
ENCODING -1 47
SWIDTH 0 0
DWIDTH 4 0
BBX 4 11 0 -1
BITMAP
3000
3000
3000
6000
6000
6000
6000
c000
c000
c000
c000
ENDCHAR
STARTCHAR 0
ENCODING -1 48
SWIDTH 0 0
DWIDTH 8 0
BBX 7 10 0 -1
BITMAP
7c00
fe00
c600
c600
c600
c600
c600
c600
fe00
7c00
ENDCHAR
STARTCHAR 1
ENCODING -1 49
SWIDTH 0 0
DWIDTH 6 0
BBX 4 10 0 -1
BITMAP
3000
f000
f000
3000
3000
3000
3000
3000
3000
3000
ENDCHAR
STARTCHAR 2
ENCODING -1 50
SWIDTH 0 0
DWIDTH 8 0
BBX 7 10 0 -1
BITMAP
7c00
fe00
c600
0e00
1c00
3800
7000
e000
fe00
fe00
ENDCHAR
STARTCHAR 3
ENCODING -1 51
SWIDTH 0 0
DWIDTH 8 0
BBX 7 10 0 -1
BITMAP
7c00
fe00
c600
0600
3c00
3e00
0600
c600
fe00
7c00
ENDCHAR
STARTCHAR 4
ENCODING -1 52
SWIDTH 0 0
DWIDTH 9 0
BBX 8 10 0 -1
BITMAP
0e00
1e00
3e00
7600
e600
c600
ff00
ff00
0600
0600
ENDCHAR
STARTCHAR 5
ENCODING -1 53
SWIDTH 0 0
DWIDTH 8 0
BBX 7 10 0 -1
BITMAP
fc00
fc00
c000
f800
fc00
0e00
0600
ce00
fc00
7800
ENDCHAR
STARTCHAR 6
ENCODING -1 54
SWIDTH 0 0
DWIDTH 8 0
BBX 7 10 0 -1
BITMAP
7c00
fe00
c600
c000
fc00
fe00
c600
c600
fe00
7c00
ENDCHAR
STARTCHAR 7
ENCODING -1 55
SWIDTH 0 0
DWIDTH 8 0
BBX 7 10 0 -1
BITMAP
fe00
fe00
0c00
0c00
1800
1800
3000
3000
6000
6000
ENDCHAR
STARTCHAR 8
ENCODING -1 56
SWIDTH 0 0
DWIDTH 8 0
BBX 7 10 0 -1
BITMAP
7c00
fe00
c600
c600
7c00
fe00
c600
c600
fe00
7c00
ENDCHAR
STARTCHAR 9
ENCODING -1 57
SWIDTH 0 0
DWIDTH 8 0
BBX 7 10 0 -1
BITMAP
7c00
fe00
c600
c600
fe00
7e00
0600
c600
fe00
7c00
ENDCHAR
STARTCHAR :
ENCODING -1 58
SWIDTH 0 0
DWIDTH 5 0
BBX 2 8 2 -1
BITMAP
c000
c000
0000
0000
0000
0000
c000
c000
ENDCHAR
STARTCHAR ;
ENCODING -1 59
SWIDTH 0 0
DWIDTH 5 0
BBX 3 9 1 -2
BITMAP
6000
6000
0000
0000
0000
0000
6000
6000
c000
ENDCHAR
STARTCHAR <
ENCODING -1 60
SWIDTH 0 0
DWIDTH 8 0
BBX 6 7 1 0
BITMAP
0400
1c00
7000
c000
7000
1c00
0400
ENDCHAR
STARTCHAR =
ENCODING -1 61
SWIDTH 0 0
DWIDTH 9 0
BBX 7 5 1 1
BITMAP
fc00
fc00
0000
fc00
fc00
ENDCHAR
STARTCHAR >
ENCODING -1 62
SWIDTH 0 0
DWIDTH 8 0
BBX 6 7 1 0
BITMAP
8000
e000
3800
0c00
3800
e000
8000
ENDCHAR
STARTCHAR ?
ENCODING -1 63
SWIDTH 0 0
DWIDTH 9 0
BBX 7 11 1 -1
BITMAP
7c00
fe00
c600
ce00
1c00
3800
3000
3000
0000
3000
3000
ENDCHAR
STARTCHAR @
ENCODING -1 64
SWIDTH 0 0
DWIDTH 14 0
BBX 13 12 1 -2
BITMAP
0fc0
3cf0
7030
6798
cd98
d998
db98
dbb0
cee0
6000
70c0
1f80
ENDCHAR
STARTCHAR A
ENCODING -1 65
SWIDTH 0 0
DWIDTH 10 0
BBX 10 11 0 -1
BITMAP
0c00
0c00
1e00
1e00
3300
3300
7f80
7f80
e1c0
c0c0
c0c0
ENDCHAR
STARTCHAR B
ENCODING -1 66
SWIDTH 0 0
DWIDTH 10 0
BBX 8 11 1 -1
BITMAP
fc00
fe00
c600
c600
fc00
fe00
c700
c300
c700
fe00
fc00
ENDCHAR
STARTCHAR C
ENCODING -1 67
SWIDTH 0 0
DWIDTH 11 0
BBX 9 11 1 -1
BITMAP
1e00
7f80
6180
c180
c000
c000
c000
c000
6180
7f80
1e00
ENDCHAR
STARTCHAR D
ENCODING -1 68
SWIDTH 0 0
DWIDTH 11 0
BBX 9 11 1 -1
BITMAP
fc00
ff00
c300
c180
c180
c180
c180
c180
c300
ff00
fc00
ENDCHAR
STARTCHAR E
ENCODING -1 69
SWIDTH 0 0
DWIDTH 9 0
BBX 7 11 1 -1
BITMAP
fe00
fe00
c000
c000
fc00
fc00
c000
c000
c000
fe00
fe00
ENDCHAR
STARTCHAR F
ENCODING -1 70
SWIDTH 0 0
DWIDTH 9 0
BBX 7 11 1 -1
BITMAP
fe00
fe00
c000
c000
fc00
fc00
c000
c000
c000
c000
c000
ENDCHAR
STARTCHAR G
ENCODING -1 71
SWIDTH 0 0
DWIDTH 11 0
BBX 9 11 1 -1
BITMAP
1e00
7f80
6180
c000
c000
c780
c780
c180
6180
7f80
1e00
ENDCHAR
STARTCHAR H
ENCODING -1 72
SWIDTH 0 0
DWIDTH 10 0
BBX 8 11 1 -1
BITMAP
c300
c300
c300
c300
ff00
ff00
c300
c300
c300
c300
c300
ENDCHAR
STARTCHAR I
ENCODING -1 73
SWIDTH 0 0
DWIDTH 4 0
BBX 2 11 1 -1
BITMAP
c000
c000
c000
c000
c000
c000
c000
c000
c000
c000
c000
ENDCHAR
STARTCHAR J
ENCODING -1 74
SWIDTH 0 0
DWIDTH 8 0
BBX 7 11 0 -1
BITMAP
0600
0600
0600
0600
0600
0600
c600
c600
ee00
7c00
3800
ENDCHAR
STARTCHAR K
ENCODING -1 75
SWIDTH 0 0
DWIDTH 10 0
BBX 9 11 1 -1
BITMAP
c300
c700
ce00
dc00
f800
f800
dc00
ce00
c700
c380
c180
ENDCHAR
STARTCHAR L
ENCODING -1 76
SWIDTH 0 0
DWIDTH 8 0
BBX 7 11 1 -1
BITMAP
c000
c000
c000
c000
c000
c000
c000
c000
c000
fe00
fe00
ENDCHAR
STARTCHAR M
ENCODING -1 77
SWIDTH 0 0
DWIDTH 13 0
BBX 11 11 1 -1
BITMAP
c060
e0e0
e0e0
f1e0
f1e0
db60
db60
ce60
ce60
ce60
c460
ENDCHAR
STARTCHAR N
ENCODING -1 78
SWIDTH 0 0
DWIDTH 11 0
BBX 9 11 1 -1
BITMAP
e180
e180
f180
f980
d980
dd80
cd80
c780
c780
c380
c380
ENDCHAR
STARTCHAR O
ENCODING -1 79
SWIDTH 0 0
DWIDTH 12 0
BBX 10 11 1 -1
BITMAP
1e00
7f80
6180
c0c0
c0c0
c0c0
c0c0
c0c0
6180
7f80
1e00
ENDCHAR
STARTCHAR P
ENCODING -1 80
SWIDTH 0 0
DWIDTH 10 0
BBX 8 11 1 -1
BITMAP
fc00
fe00
c700
c300
c700
fe00
fc00
c000
c000
c000
c000
ENDCHAR
STARTCHAR Q
ENCODING -1 81
SWIDTH 0 0
DWIDTH 12 0
BBX 10 11 1 -1
BITMAP
1e00
7f80
6180
c0c0
c0c0
c0c0
ccc0
c6c0
6380
7f80
1ec0
ENDCHAR
STARTCHAR R
ENCODING -1 82
SWIDTH 0 0
DWIDTH 10 0
BBX 9 11 1 -1
BITMAP
fc00
fe00
c700
c300
c700
fe00
fc00
ce00
c600
c700
c300
ENDCHAR
STARTCHAR S
ENCODING -1 83
SWIDTH 0 0
DWIDTH 10 0
BBX 8 11 1 -1
BITMAP
7c00
fe00
c600
e000
7c00
1e00
0700
c300
e700
7e00
3c00
ENDCHAR
STARTCHAR T
ENCODING -1 84
SWIDTH 0 0
DWIDTH 8 0
BBX 8 11 0 -1
BITMAP
ff00
ff00
1800
1800
1800
1800
1800
1800
1800
1800
1800
ENDCHAR
STARTCHAR U
ENCODING -1 85
SWIDTH 0 0
DWIDTH 11 0
BBX 9 11 1 -1
BITMAP
c180
c180
c180
c180
c180
c180
c180
c180
e380
7f00
3e00
ENDCHAR
STARTCHAR V
ENCODING -1 86
SWIDTH 0 0
DWIDTH 10 0
BBX 10 11 0 -1
BITMAP
c0c0
c0c0
6180
6180
7380
3300
3300
1e00
1e00
0c00
0c00
ENDCHAR
STARTCHAR W
ENCODING -1 87
SWIDTH 0 0
DWIDTH 14 0
BBX 14 11 0 -1
BITMAP
c30c
c30c
c78c
6798
6498
6cd8
2cd0
3cf0
3870
1860
1860
ENDCHAR
STARTCHAR X
ENCODING -1 88
SWIDTH 0 0
DWIDTH 9 0
BBX 9 11 0 -1
BITMAP
c180
e380
6300
3600
3e00
1c00
3600
3600
6300
e380
c180
ENDCHAR
STARTCHAR Y
ENCODING -1 89
SWIDTH 0 0
DWIDTH 10 0
BBX 10 11 0 -1
BITMAP
c0c0
e1c0
6180
3300
3f00
1e00
0c00
0c00
0c00
0c00
0c00
ENDCHAR
STARTCHAR Z
ENCODING -1 90
SWIDTH 0 0
DWIDTH 9 0
BBX 8 11 0 -1
BITMAP
ff00
ff00
0600
0c00
1c00
1800
3000
7000
6000
ff00
ff00
ENDCHAR
STARTCHAR [
ENCODING -1 91
SWIDTH 0 0
DWIDTH 5 0
BBX 4 14 0 -4
BITMAP
f000
c000
c000
c000
c000
c000
c000
c000
c000
c000
c000
c000
c000
f000
ENDCHAR
STARTCHAR \
ENCODING -1 92
SWIDTH 0 0
DWIDTH 4 0
BBX 4 11 0 -1
BITMAP
c000
c000
c000
c000
6000
6000
6000
3000
3000
3000
3000
ENDCHAR
STARTCHAR ]
ENCODING -1 93
SWIDTH 0 0
DWIDTH 5 0
BBX 4 14 0 -4
BITMAP
f000
3000
3000
3000
3000
3000
3000
3000
3000
3000
3000
3000
3000
f000
ENDCHAR
STARTCHAR ^
ENCODING -1 94
SWIDTH 0 0
DWIDTH 8 0
BBX 6 3 1 7
BITMAP
3000
7800
cc00
ENDCHAR
STARTCHAR _
ENCODING -1 95
SWIDTH 0 0
DWIDTH 8 0
BBX 9 4 0 -4
BITMAP
0000
0000
ff00
ff00
ENDCHAR
STARTCHAR `
ENCODING -1 96
SWIDTH 0 0
DWIDTH 5 0
BBX 3 3 1 7
BITMAP
6000
c000
c000
ENDCHAR
STARTCHAR a
ENCODING -1 97
SWIDTH 0 0
DWIDTH 8 0
BBX 7 8 1 -1
BITMAP
7800
cc00
0c00
7c00
cc00
cc00
fc00
7600
ENDCHAR
STARTCHAR b
ENCODING -1 98
SWIDTH 0 0
DWIDTH 8 0
BBX 7 11 1 -1
BITMAP
c000
c000
c000
d800
fc00
c600
c600
c600
c600
fc00
d800
ENDCHAR
STARTCHAR c
ENCODING -1 99
SWIDTH 0 0
DWIDTH 8 0
BBX 6 8 1 -1
BITMAP
3800
7c00
cc00
c000
c000
c400
7c00
3800
ENDCHAR
STARTCHAR d
ENCODING -1 100
SWIDTH 0 0
DWIDTH 9 0
BBX 7 11 1 -1
BITMAP
0600
0600
0600
3600
7e00
c600
c600
c600
c600
7e00
3600
ENDCHAR
STARTCHAR e
ENCODING -1 101
SWIDTH 0 0
DWIDTH 8 0
BBX 6 8 1 -1
BITMAP
7800
cc00
cc00
fc00
c000
c000
ec00
7800
ENDCHAR
STARTCHAR f
ENCODING -1 102
SWIDTH 0 0
DWIDTH 5 0
BBX 5 11 0 -1
BITMAP
3800
6000
6000
f800
6000
6000
6000
6000
6000
6000
6000
ENDCHAR
STARTCHAR g
ENCODING -1 103
SWIDTH 0 0
DWIDTH 9 0
BBX 7 11 1 -4
BITMAP
3a00
7e00
c600
c600
c600
c600
7e00
3600
0600
ce00
7c00
ENDCHAR
STARTCHAR h
ENCODING -1 104
SWIDTH 0 0
DWIDTH 9 0
BBX 7 11 1 -1
BITMAP
c000
c000
c000
dc00
fe00
c600
c600
c600
c600
c600
c600
ENDCHAR
STARTCHAR i
ENCODING -1 105
SWIDTH 0 0
DWIDTH 4 0
BBX 2 11 1 -1
BITMAP
c000
c000
0000
c000
c000
c000
c000
c000
c000
c000
c000
ENDCHAR
STARTCHAR j
ENCODING -1 106
SWIDTH 0 0
DWIDTH 4 0
BBX 3 14 0 -4
BITMAP
6000
6000
0000
6000
6000
6000
6000
6000
6000
6000
6000
6000
e000
c000
ENDCHAR
STARTCHAR k
ENCODING -1 107
SWIDTH 0 0
DWIDTH 8 0
BBX 6 11 1 -1
BITMAP
c000
c000
c000
cc00
d800
f000
f000
d800
d800
cc00
cc00
ENDCHAR
STARTCHAR l
ENCODING -1 108
SWIDTH 0 0
DWIDTH 4 0
BBX 2 11 1 -1
BITMAP
c000
c000
c000
c000
c000
c000
c000
c000
c000
c000
c000
ENDCHAR
STARTCHAR m
ENCODING -1 109
SWIDTH 0 0
DWIDTH 12 0
BBX 10 8 1 -1
BITMAP
db80
ffc0
ccc0
ccc0
ccc0
ccc0
ccc0
ccc0
ENDCHAR
STARTCHAR n
ENCODING -1 110
SWIDTH 0 0
DWIDTH 9 0
BBX 7 8 1 -1
BITMAP
dc00
fe00
c600
c600
c600
c600
c600
c600
ENDCHAR
STARTCHAR o
ENCODING -1 111
SWIDTH 0 0
DWIDTH 8 0
BBX 7 8 1 -1
BITMAP
3800
6c00
c600
c600
c600
c600
6c00
3800
ENDCHAR
STARTCHAR p
ENCODING -1 112
SWIDTH 0 0
DWIDTH 8 0
BBX 7 11 1 -4
BITMAP
d800
fc00
c600
c600
c600
c600
fc00
d800
c000
c000
c000
ENDCHAR
STARTCHAR q
ENCODING -1 113
SWIDTH 0 0
DWIDTH 9 0
BBX 7 11 1 -4
BITMAP
3600
7e00
c600
c600
c600
c600
7e00
3600
0600
0600
0600
ENDCHAR
STARTCHAR r
ENCODING -1 114
SWIDTH 0 0
DWIDTH 6 0
BBX 5 8 1 -1
BITMAP
d800
f800
c000
c000
c000
c000
c000
c000
ENDCHAR
STARTCHAR s
ENCODING -1 115
SWIDTH 0 0
DWIDTH 8 0
BBX 6 8 1 -1
BITMAP
7800
cc00
c000
f800
7c00
0c00
cc00
7800
ENDCHAR
STARTCHAR t
ENCODING -1 116
SWIDTH 0 0
DWIDTH 5 0
BBX 5 10 0 -1
BITMAP
6000
6000
f800
6000
6000
6000
6000
6000
7800
3800
ENDCHAR
STARTCHAR u
ENCODING -1 117
SWIDTH 0 0
DWIDTH 9 0
BBX 7 8 1 -1
BITMAP
c600
c600
c600
c600
c600
c600
fe00
7600
ENDCHAR
STARTCHAR v
ENCODING -1 118
SWIDTH 0 0
DWIDTH 8 0
BBX 8 8 0 -1
BITMAP
c300
c300
6600
6600
3c00
3c00
1800
1800
ENDCHAR
STARTCHAR w
ENCODING -1 119
SWIDTH 0 0
DWIDTH 10 0
BBX 10 8 0 -1
BITMAP
ccc0
ccc0
ccc0
6d80
6d80
7f80
3300
3300
ENDCHAR
STARTCHAR x
ENCODING -1 120
SWIDTH 0 0
DWIDTH 7 0
BBX 7 8 0 -1
BITMAP
c600
c600
6c00
3800
3800
6c00
c600
c600
ENDCHAR
STARTCHAR y
ENCODING -1 121
SWIDTH 0 0
DWIDTH 8 0
BBX 8 11 0 -4
BITMAP
c300
c300
6600
6600
6600
3c00
3c00
1800
1800
7000
7000
ENDCHAR
STARTCHAR z
ENCODING -1 122
SWIDTH 0 0
DWIDTH 6 0
BBX 6 8 0 -1
BITMAP
fc00
fc00
1800
3000
3000
6000
fc00
fc00
ENDCHAR
STARTCHAR {
ENCODING -1 123
SWIDTH 0 0
DWIDTH 6 0
BBX 5 14 0 -4
BITMAP
1800
3000
3000
3000
3000
6000
c000
6000
3000
3000
3000
3000
3000
1800
ENDCHAR
STARTCHAR |
ENCODING -1 124
SWIDTH 0 0
DWIDTH 4 0
BBX 2 14 1 -4
BITMAP
c000
c000
c000
c000
c000
c000
c000
c000
c000
c000
c000
c000
c000
c000
ENDCHAR
STARTCHAR }
ENCODING -1 125
SWIDTH 0 0
DWIDTH 6 0
BBX 5 14 1 -4
BITMAP
c000
6000
6000
6000
6000
3000
1800
3000
6000
6000
6000
6000
6000
c000
ENDCHAR
STARTCHAR ~
ENCODING -1 126
SWIDTH 0 0
DWIDTH 9 0
BBX 7 3 1 2
BITMAP
7200
de00
8c00
ENDCHAR
ENDFONT
